<svg width="48" height="30" viewBox="0 0 48 30" fill="none" xmlns="http://www.w3.org/2000/svg">
  <path d="M17.4 24.9H30.6V5.1H17.4V24.9Z" fill="#FF5F00"/>
  <path d="M18.3 15C18.3 11.1 20.1 7.7 23 5.1C20.7 3.3 17.8 2.2 14.7 2.2C7.2 2.2 1.2 8 1.2 15C1.2 22 7.2 27.8 14.7 27.8C17.8 27.8 20.7 26.7 23 24.9C20.1 22.3 18.3 18.9 18.3 15Z" fill="#EB001B"/>
  <path d="M46.8 15C46.8 22 40.8 27.8 33.3 27.8C30.2 27.8 27.3 26.7 25 24.9C27.9 22.3 29.7 18.9 29.7 15C29.7 11.1 27.9 7.7 25 5.1C27.3 3.3 30.2 2.2 33.3 2.2C40.8 2.2 46.8 8 46.8 15Z" fill="#F79E1B"/>
</svg>
