<svg width="48" height="16" viewBox="0 0 48 16" fill="none" xmlns="http://www.w3.org/2000/svg">
  <path d="M19.128 15.74H15.425L17.704 0.26H21.407L19.128 15.74Z" fill="#00579F"/>
  <path d="M34.7 0.624C33.994 0.364 32.829 0.078 31.406 0.078C27.703 0.078 25.034 2.079 25.008 4.911C24.982 7.016 26.96 8.173 28.446 8.849C29.958 9.538 30.453 9.981 30.453 10.592C30.44 11.541 29.282 11.984 28.199 11.984C26.7 11.984 25.905 11.775 24.669 11.255L24.096 11.021L23.497 14.296C24.331 14.661 25.879 14.986 27.482 15C31.406 15 34.023 13.025 34.062 10.021C34.088 8.355 33.053 7.094 30.843 6.066C29.517 5.415 28.722 4.985 28.722 4.336C28.735 3.751 29.386 3.152 30.817 3.152C32.007 3.126 32.868 3.387 33.547 3.647L33.937 3.803L34.523 0.624H34.7Z" fill="#00579F"/>
  <path d="M39.602 10.384C39.953 9.487 41.114 6.326 41.114 6.326C41.101 6.352 41.452 5.428 41.673 4.856L41.985 6.196C41.985 6.196 42.687 9.591 42.856 10.384C42.336 10.384 40.252 10.384 39.602 10.384ZM44.342 0.26H41.517C40.617 0.26 39.953 0.494 39.576 1.339L33.937 15.74H37.861C37.861 15.74 38.511 13.986 38.654 13.622C39.108 13.622 43.16 13.622 43.744 13.622C43.861 14.089 44.212 15.74 44.212 15.74H47.7L44.342 0.26Z" fill="#00579F"/>
  <path d="M12.847 0.26L9.183 10.852L8.817 9.097C8.154 6.924 6.096 4.544 3.792 3.334L7.152 15.727H11.102L17.002 0.26H12.847Z" fill="#00579F"/>
  <path d="M5.928 0.26H0.052L0 0.546C4.586 1.651 7.633 4.986 8.817 9.097L7.542 1.352C7.321 0.52 6.695 0.273 5.928 0.26Z" fill="#FAA61A"/>
</svg>
